<?xml version="1.0" encoding="UTF-8"?>
<svg id="b" data-name="Layer 2" xmlns="http://www.w3.org/2000/svg" viewBox="0 0 225.85999 179.24005">
  <g id="c" data-name="Layer 1">
    <path d="M225.85999,89.62l-55.90997-18.89996,23.48999-42.89001-56.94,16.97998L112.92999,0l-23.57001,44.81L32.41998,27.83002l23.49005,42.89001L0,89.62l55.91003,18.90002-23.49005,42.89001,56.94-16.98004,23.57001,44.81006,23.57001-44.81006,56.94,16.98004-23.48999-42.89001,55.90997-18.90002Zm-100.44,23.74005l-12.48999,23.73999-12.48999-23.73999-30.16998,9,12.45001-22.73004-29.62006-10.01001,29.62006-10.00995-12.45001-22.73004,30.16998,9,12.48999-23.73999,12.48999,23.73999,30.17004-9-12.45001,22.73004,29.62,10.00995-29.62,10.01001,12.45001,22.73004-30.17004-9Z" fill="currentColor"/>
  </g>
</svg>