<?xml version="1.0" encoding="UTF-8"?>
<svg id="b" data-name="Layer 2" xmlns="http://www.w3.org/2000/svg" viewBox="0 0 171.82996 130.07001">
  <g id="c" data-name="Layer 1">
    <g>
      <path d="M85.91998,0C38.46997,0,0,29.12,0,65.02997c0,35.92004,38.46997,65.04004,85.91998,65.04004s85.90997-29.12,85.90997-65.04004C171.82996,29.12,133.37,0,85.91998,0Zm0,117.20996c-38.63,0-69.95001-23.35999-69.95001-52.17999,0-28.81,31.32001-52.16998,69.95001-52.16998s69.95001,23.35999,69.95001,52.16998c0,28.82001-31.32001,52.17999-69.95001,52.17999Z" fill="currentColor"/>
      <path d="M85.91998,21.29999c-31.90997,0-57.77997,19.58002-57.77997,43.72998,0,24.16003,25.87,43.73999,57.77997,43.73999s57.78003-19.57996,57.78003-43.73999c0-24.14996-25.87006-43.72998-57.78003-43.72998Zm0,75.21002c-23.31,0-42.20001-14.09003-42.20001-31.48004,0-17.38,18.89001-31.47998,42.20001-31.47998s42.20001,14.09998,42.20001,31.47998c0,17.39001-18.89001,31.48004-42.20001,31.48004Z" fill="currentColor"/>
      <path d="M85.91998,45.13c-15.77002,0-28.54999,8.90997-28.54999,19.89996,0,11,12.77997,19.91003,28.54999,19.91003,15.76001,0,28.53998-8.91003,28.53998-19.91003,0-10.98999-12.77997-19.89996-28.53998-19.89996Zm0,31.88c-8.21997,0-14.89001-5.36005-14.89001-11.98004,0-6.60999,6.67004-11.97998,14.89001-11.97998s14.88,5.37,14.88,11.97998c0,6.62-6.65997,11.98004-14.88,11.98004Z" fill="currentColor"/>
    </g>
  </g>
</svg>