<?xml version="1.0" encoding="UTF-8"?>
<svg id="b" data-name="Layer 2" xmlns="http://www.w3.org/2000/svg" viewBox="0 0 166.45007 127.92004">
  <g id="c" data-name="Layer 1">
    <path d="M83.22009,0C37.26001,0,0,28.64001,0,63.96002c0,35.33002,37.26001,63.96002,83.22009,63.96002,45.96997,0,83.22998-28.63,83.22998-63.96002C166.45007,28.64001,129.19006,0,83.22009,0Zm0,110.66003c-2.40858,0-4.78564-.10718-7.12232-.31799-.71953-.06491-.78694-1.09954-.08211-1.25812,13.88512-3.12396,19.70442-13.80089,19.70442-24.64393,0-20.47998-18.63269-23.80473-18.63269-41.95925,0-10.14335,10.4268-19.55652,25.02128-19.55652,26.78239,0,39.82979,23.78079,39.82979,41.03579,0,25.78998-25.15843,46.70001-58.71837,46.70001Z" fill="currentColor"/>
  </g>
</svg>