<?xml version="1.0" encoding="UTF-8"?>
<svg id="b" data-name="Layer 2" xmlns="http://www.w3.org/2000/svg" viewBox="0 0 140.34004 144.31493">
  <g id="c" data-name="Layer 1">
    <path d="M.00005,87.80291c-.01-17.4,1.6-28.85,6.39-39.68,3.81-8.63,8.14-10.12,15.18-4.54,9.56,7.57,20.13,12.71,32,15.35,6.4,1.43,8.85,5.18,6.73,11.74-7.23,22.39-14.49,44.78-21.4,67.27-2.38,7.73-5.96,7.47-11.48,3.27C7.86006,126.32292,.16005,105.99291,.00006,87.80291h-.00001Z" fill="currentColor"/>
    <path d="M140.34004,83.3729c-.2,22.42999-7.78999,41.62-25.20999,56.25-8.50999,7.14-11.14999,6.33-14.39-3.8-6.75-21.14999-13.17-42.41-20.18001-63.48-2.61-7.83-.78999-11.92,7.38-13.71,11.17-2.45,21.17999-7.45,30.20999-14.58,7.71001-6.09,11.86-4.82,15.86,4.29,4.91,11.17,6.33,22.98,6.33,35.02v.00999Z" fill="currentColor"/>
    <path d="M70.07005,48.1229c-15.42,.42-28.7-4.76-40.56-14.1-6.17-4.85-7.07-9.34-1.07-15.53,23.76-24.54,59.04-24.66,83.13-.34,6.45,6.51,5.42,11.16-1.14999,16.22-11.96001,9.2-25.27,14.31-40.34,13.75h-.01001Z" fill="currentColor"/>
    <path d="M70.56004,122.17291c4.03-.22,7.64999-.37,11.27-.64,4.75-.35001,6.17999,2.60001,7.00999,6.53999,.84,3.97-.53,6.28999-4.39,7.42999-9.41,2.78-18.79,2.72-28.22,.13-4.4-1.21001-5.59-3.84-4.63-8.17,.94-4.23,3.05-6.32001,7.53-5.92,3.94,.35001,7.89,.44,11.43999,.63h-.00999Z" fill="currentColor"/>
    <path d="M70.25007,113.82288h-.01001c-.03003-.01001-.06-.01001-.09003-.01996-.02997,.00995-.06,.00995-.08997,.01996h-.01001c-4.77002,0-12.01001,1.45001-11.66003-7,.30005-7.21997,4.98004-9.10999,11.76001-9.19995,6.78003,.08997,11.46002,1.97998,11.76001,9.19995,.34998,8.45001-6.89001,7-11.65997,7Z" fill="currentColor"/>
  </g>
</svg>