<?xml version="1.0" encoding="UTF-8"?>
<svg id="b" data-name="Layer 2" xmlns="http://www.w3.org/2000/svg" viewBox="0 0 144.68851 102.27869">
  <g id="c" data-name="Layer 1">
    <path d="M18.97951,.07999c7.49,7.56,17.75,14.95,27.04,16.93-1.38,2.84-1.88,5.07-2.37,8.23-2.78,17.82-1.19,34.63,12.15,48.3,10.06,10.31,23.45,10.28,33.50999-.09,13.28999-13.71001,14.91-30.51,12.00999-48.33-.42999-2.62-1.92999-9.15-1.88-9.24,.10001-.18,0-.08,1-.38,6.48-1.51,18.62-7.99,26.05-15.5,15.36,11.88,23.64999,36.91,14.18001,56.85001-12.94,27.24001-43.16,51.75999-81.43,43.95999C30.08951,94.87,10.19951,76.31999,1.28951,47.60001-2.85049,34.27,2.95951,11.62001,18.98951,.08h-.00999Z" fill="currentColor"/>
    <path d="M84.43951,40.21999c-.27,5.3-.78999,12.60999-6.05,18.45-4.12,4.57001-7.96,4.83-11.66-.03-7.43-9.75-7.46-20.89-4.48-32.19,1.96-7.42,2.86-7.9,10.26-7.9,7.41,0,7.97,.58,10.38,7.85,1.28,3.88,1.58,7.78,1.56,13.83l-.00999-.01Z" fill="currentColor"/>
  </g>
</svg>