<?xml version="1.0" encoding="UTF-8"?>
<svg id="b" data-name="Layer 2" xmlns="http://www.w3.org/2000/svg" viewBox="0 0 157.36052 163.1219">
  <g id="c" data-name="Layer 1">
    <path d="M121.67028,76.88179c-.20001-6.97998,.13-14.48999-4.17999-20.19-7.37-9.76996-8.58002-21.37994-11.59003-32.50995-1.82001-6.74005-3.82001-13.42004-5.70001-20.14001-.56-2.01001-1.27997-4-3.70996-4-2.60004,0-2.89001,2.22998-3.34003,4.19-1.71002,7.44-3.91998,14.81-5.02997,22.33997-.93005,6.28003-4.85004,6.05005-9.35004,6.03003-4.45001-.02002-8.44,.33997-9.39001-5.97003-1.17999-7.85999-3.42999-15.56-5.22998-23.32996C63.75024,1.60183,63.06023,.06185,61.04028,.00185c-1.97003-.06006-3,1.34998-3.48004,3-2.04999,7.00995-3.69995,14.15997-6.06995,21.06-2.90002,8.44-1.73004,18.15997-7.55005,25.57996-11.89996,15.19-11.58997,44.27002,2.66003,60.48999,8.56,9.75,12,20.12006,11.92999,32.43005-.01001,1.31995,.23999,2.64996,.41998,3.96997,1.54999,11.21002,7.94,16.57001,19.75,16.59003,11.82001,.01996,18.31-5.36005,19.79004-16.53003,.56995-4.27997,1.27997-8.60999,1.20996-12.90997-.12-7.03003,2.15002-12.51001,7.01001-17.85004,9.91003-10.88,15.76001-23.73999,14.96002-38.95001Zm-74.09003-.57996c6.29999,10.19,12.01001,19.41998,18.62,30.12-18.27997-1.32001-24.38-11.73004-18.62-30.12Zm44.63,30.12c6.60999-10.70001,12.32001-19.92999,18.62-30.12,5.76001,18.38995-.33997,28.79999-18.62,30.12Z" fill="currentColor"/>
    <path d="M136.72027,133.8918c-5.83002-6.34998-8.44-14.76996-13.52002-21.57996-.64996-.87006-.73999-2.88-.17999-3.82001,5.41003-9,4.95001-20.46002,12.96002-28.54004,7.83997-7.91998,9.39001-18.59998,8.96997-31.53998,16.77002,17.38,18.85004,64.52002-8.22998,85.47998Z" fill="currentColor"/>
    <path d="M34.16027,112.31185c-5.08002,6.81-7.69,15.22998-13.52002,21.57996C-6.43977,112.93184-4.35975,65.79183,12.41027,48.41182c-.41998,12.94,1.13,23.62,8.96997,31.53998,8.01001,8.08002,7.55005,19.54004,12.96002,28.54004,.56,.94,.46997,2.94995-.17999,3.82001Z" fill="currentColor"/>
  </g>
</svg>