<?xml version="1.0" encoding="UTF-8"?>
<svg id="b" data-name="Layer 2" xmlns="http://www.w3.org/2000/svg" viewBox="0 0 98.53294 154.64176">
  <g id="c" data-name="Layer 1">
    <path d="M32.15168,149.91671c3.08-10.14999,6.21-20.3,9.82-30.28,2.33-6.45,1.96-10.95-4.46-15.2-10.8-7.14999-20.8-15.48-31.36-23-6.61-4.71-7.92-10.03-3.8-17.02C13.99167,44.67671,25.57168,24.92671,39.03167,6.31671,44.18168-.80329,49.30167-1.79329,56.68168,2.78671c11.82001,7.34,23.91,14.25,36.04001,21.07,7.09,3.99,7.59,8.15,2.06,14.06-8.19,8.74-15.62,18.2-24.02,26.73-5.23,5.31-4.13,8.76,.94,12.93,6.41,5.28001,12.52,10.93999,18.74001,16.46,3.67999,3.27,4.03999,6.56,.24001,10.13-14.75597,13.87228-43.5233,40.88715-52.68476,49.49009-2.63472,2.47409-6.89968-.08493-5.89921-3.55795,.01732-.06013,.0353-.12084,.05395-.18213Z" fill="currentColor"/>
  </g>
</svg>