<?xml version="1.0" encoding="UTF-8"?>
<svg id="b" data-name="Layer 2" xmlns="http://www.w3.org/2000/svg" viewBox="0 0 144.30846 145.0677">
  <g id="c" data-name="Layer 1">
    <path d="M143.55423,9.05263c-.66998-6.56-6.56-8.82001-12.67999-9-22.42999-.64996-42.31,4.56-55.63,24.61005-.46002,.69-1.48999,2.46997-3.09003,5.31995-1.59998-2.84998-2.63-4.62994-3.08997-5.31995C55.74423,4.61262,35.86423-.59734,13.43424,.05263,7.31424,.23262,1.42423,2.49263,.75424,9.05263-.95578,25.74263-.4758,42.06264,9.92423,56.82265c5.62,7.98999,13.69,12.25,21.65997,17.39001-2.59998,6.58997-7.06995,11.67999-8.56995,18.29999-2.77002,12.16998,.60999,16.37,13.19995,17.16998,6.74005,.42999,17.92004-1.38,22.74005-5.33997,.25,12.57001-10.99005,25.76996-7.68005,39.38995,.34003,1.41003,2.17004,1.80005,3.11005,.70001,10.13995-11.92999,11.35999-26.92999,17.76996-40.26996,6.41003,13.33997,7.63,28.33997,17.77002,40.26996,.94,1.10004,2.77002,.71002,3.10999-.70001,3.31-13.62-7.92999-26.81995-7.67999-39.38995,4.82001,3.95996,16,5.76996,22.73999,5.33997,12.59003-.79999,15.97003-5,13.20001-17.16998-1.5-6.62-5.96997-11.71002-8.57001-18.29999,7.97003-5.14001,16.04004-9.40002,21.66003-17.39001,10.39996-14.76001,10.88-31.08002,9.16998-47.77002ZM72.15421,73.08266c-9.67999,.13-17.88995-3.91003-23.96997-14.16003,10.83997-1.52997,19.73999-8.70996,23.96997-19.25995,4.23004,10.54999,13.13,17.72998,23.97003,19.25995-6.08002,10.25-14.29004,14.29004-23.97003,14.16003Z" fill="currentColor"/>
  </g>
</svg>