<?xml version="1.0" encoding="UTF-8"?>
<svg id="b" data-name="Layer 2" xmlns="http://www.w3.org/2000/svg" viewBox="0 0 122.19293 135.04803">
  <g id="c" data-name="Layer 1">
    <path d="M106.60268,117.57865c-18.32001,7.00995-37.09003,12.46997-56.28003,16.60999-6.48999,1.39996-12.82001,1.22998-18.54999-1.56-9.54999-4.66003-18.42999-10.58002-26.78998-17.17999-2.90002-2.29004-4.35004-5.25-4.45001-8.92004-.16003-5.95996,.32001-11.94,0-17.89996-.29004-5.29999,1.70001-8.26001,7.01001-8.25,13.97998,.01996,27.95996,0,41.94,.07001,2.72998,.00995,5.69,.38995,6.16998,3.75995,.84998,6.07001,5.15997,6,9.64001,6,14.97998-.01996,29.95996-.01996,44.94,.04004,1.02997,0,2.07001-.03003,3.12-.04999h4.67819c2.21013,0,4.0018,1.79167,4.0018,4.0018v2.29819c.91998,13.04999-1.85004,15.88-15.42999,21.08002Z" fill="currentColor"/>
    <path d="M.06266,32.54862C.06266,24.89862-.10733,17.23862,.11267,9.58862,.34267,1.33862,1.40267,.42862,9.40267,.09862c12.35-.52,13.55,.62,13.57,13.24,.03,14.31,.11,28.62-.05,42.92-.1,8.6-2.14,10.41-10.71,10.59-9.27,.17999-11.82-1.83-12.08-10.34-.24-7.98-.05-15.97-.05-23.96,0,0-.01,0-.02,0Z" fill="currentColor"/>
    <path d="M122.07036,73.06864c-.15658,6.08997-3.24837,9.08997-9.2363,9.03998-6.13472-.04999-12.27918-.01001-18.4139-.01001s-12.27918-.03998-18.4139,.01001c-5.98793,.04999-9.07978-2.95001-9.2363-9.03998-.08808-3.32001-.22502-6.66003,0-9.97003,.35222-5.39001,3.08205-8.72998,8.61989-8.76001,6.34015-.03998,12.69016-.03998,19.03031-.02997,6.34015-.01001,12.6901-.01001,19.03031,.02997,5.53784,.03003,8.26761,3.37,8.61989,8.76001,.22502,3.31,.08802,6.65002,0,9.97003Z" fill="currentColor"/>
    <path d="M56.06266,33.69862c0,7.98,.25,15.96-.07,23.93-.3,7.37-2.74,9.14-11.13,9.21001-8.7,.07001-11.35-1.5-11.5-8.78-.36-16.61-.09-33.23-.15-49.85-.02-5.98,3.01-8.41,8.72-8.11,1.33,.07,2.66-.04,3.99,0,8.85,.21,9.91,1.08,10.13,9.67,.2,7.97,.04,15.95,.04,23.93,0,0-.02,0-.03,0Z" fill="currentColor"/>
    <path d="M89.37267,23.63862c0,5.33-.10001,10.66,.03,15.99,.12,4.68-2.05,6.48-6.64,6.51-19.31,.12-16.06,.62-16.34-14.77-.14-7.66,.11-15.33,.03-22.99-.06-5.9,2.75999-8.56,8.59-8.29,2.33,.11,4.66,.06,6.99001,.05,5.03-.01,7.23,2.72,7.25999,7.5,.03,5.33,0,10.66,0,15.99h.06l.02,.01Z" fill="currentColor"/>
    <path d="M99.18976,22.60175c0-5.33,.10001-10.66-.03-15.99-.12-4.68,2.05-6.48,6.64-6.51,19.31-.12,16.06-.62,16.34,14.77,.14,7.66-.11,15.33-.03,22.99,.06,5.9-2.75999,8.56-8.59,8.29-2.33-.11-4.66-.06-6.99001-.05-5.03,.01-7.23-2.72-7.25999-7.5-.03-5.33,0-10.66,0-15.99h-.06l-.02-.01Z" fill="currentColor"/>
  </g>
</svg>