<?xml version="1.0" encoding="UTF-8"?>
<svg id="b" data-name="Layer 2" xmlns="http://www.w3.org/2000/svg" viewBox="0 0 108.55252 151.7738">
  <g id="c" data-name="Layer 1">
    <path d="M27.53405,143.58249C9.49405,138.61249-4.61596,110.3525,1.41404,87.14249c2.47-9.5,6.73-18.04,13.15-25.42,5.67-6.52,11.56-12.86,17.44-19.19,16.45-17.72,16.84-21.84,3.67-40.92,16.66-6.33,35.79001,6.81,36.25999,24.87,.23,8.92-3.12,16.84-6.55,24.78-2.86,6.61-3.94,13.22,1.46001,21.46,.78-7.78,.25-13.98,5.16-19.12,5.44-5.7,9.99001-7.61,18.25999-5.74-8,6.58-6.97,10.9,6.52,29.92,12.34,17.41,15.7,32.35001,6.60001,48.54001-9.75,17.35001-30.86,27.88-50.31,24.97,1.32001-2.14999,5-3.89,7.7-5.48,12.95-7.61,14.91-19.53999,4.94-30.71001-3.31-3.71001-7.06-7.03999-10.67999-10.47-14.71-13.95-16.33-16.83-20.12-36.25-20.01,10.96001-23.87,46.75-7.38,75.23001l-.00002-.03001Z" fill="currentColor"/>
  </g>
</svg>