<?xml version="1.0" encoding="UTF-8"?>
<svg id="b" data-name="Layer 2" xmlns="http://www.w3.org/2000/svg" viewBox="0 0 136.16669 148.20998">
  <g id="c" data-name="Layer 1">
    <path d="M90.34428,92.77074c-15.72,18.66-36.72,18.54001-56.82,20.49001-.88,.09-1.72,.46001-2.36,1.09-10.27,10.09-15.84,24.13-28,33.64-.55,.42999-1.39,.2-1.63-.45-2.25-6.09-1.57-11.39999-.81-16.39,4.26-28.02,11.13-55.39999,21.88-81.66,5.83-14.23,15.13-24.51,31.59-27.2,24.36-3.98,47.33-13.03,70.58-20.97,2.96001-1.01,6.05-1.96,9.13-.76,.97,.38,1.74001,1.18,2.02,2.18,.91,3.25-.92,5.89-2.53999,8.68-13.5,23.36-34.25,37.50999-58.92,46.81-3.53999,1.33-7.89999,2.81-10.91,5.61-.32,.3-.08,.86,.35,.88,17.48,.74,32.76-5.7,48.82-9.24,.55-.12,1.03999,.45,.84,.98-7.05,17.93999-23.79001,26.99-39.89999,32.15-6.3,2.02-9.35,2.46001-20.33,3.46001-.37,.03-.41,.49001-.11,.57001,15.87,4,21.78-.55,36.34-1.55,.83-.06,1.3,1.02,.77,1.66l.00999,.01997Z" fill="currentColor"/>
  </g>
</svg>