<?xml version="1.0" encoding="UTF-8"?>
<svg id="b" data-name="Layer 2" xmlns="http://www.w3.org/2000/svg" viewBox="0 0 166.6152 134.78157">
  <g id="c" data-name="Layer 1">
    <path d="M166.26147,86.98153c-2.69-15.60999-12.13-22.16998-29.62-19.91998C135.28143,26.44155,116.53143,1.68154,86.44146,.08156c-13.20001-.71002-24.88,3.21997-35.08002,11.62-17.39001,14.33997-22.59998,33.52002-21.03998,55.13-18.28003-1.60999-26.97003,4.41998-29.88,19.95001-.38,2-1.03998,4.02997,.72998,5.56,1.76001,1.51996,3.91003,1.13995,5.46002-.27002,5.27997-4.79999,7.88-1.44,10.89001,2.90002,8.21997,11.87994,9.64996,11.96997,20.72998,3.01996,.94-.75,2.22998-1.06,3.57001-1.66998,7.01001,9.78998,13.35999,19.5,21.85999,27.59998,15.21002,14.48004,23.90002,14.44,39.14001,.12,8.76001-8.22998,14.92999-18.45996,22.15997-27.75995,14.12,9.29999,14.17999,9.35999,25.61005-3.67004,3.07996-3.5,5.79999-3.85999,9.22998-.64996,1.52002,1.42999,3.66998,1.92999,5.48999,.52997,1.84003-1.41998,1.29999-3.48999,.95001-5.51001ZM72.66143,53.04152c-.84998,6.86005-5.97998,8.61005-11.32996,4.15002-5.97003-4.97998-8.66003-11.56-8.82001-19.25v-.01001c-.04999-3.76001,.09998-7.71997,4.20001-9.25,4.09998-1.53998,6.94,1.39001,9.35999,4.16003,5.02997,5.75995,7.52997,12.60999,6.58997,20.19995Zm41.43005-14.54999l-.01001-.01001c-.26001,7.31-2.96002,13.47003-8.42004,18.46002-2.09998,1.91998-4.31995,3.29999-7.12,2.5-3.32996-.96002-4.52997-3.85999-4.70996-6.94-.42004-7.23999,1.69-13.82001,6.42999-19.33002,2.58997-3.01996,5.62-6.37,10.14001-4.26996,3.88995,1.81,3.79999,5.85999,3.69,9.58997Z" fill="currentColor"/>
  </g>
</svg>