<?xml version="1.0" encoding="UTF-8"?>
<svg id="b" data-name="Layer 2" xmlns="http://www.w3.org/2000/svg" viewBox="0 0 137.26888 138.38767">
  <g id="c" data-name="Layer 1">
    <path d="M135.5442,25.15679c2.2-2.13,1.75999,4.2,1.52,6.15-4.07001,32.61-8.97,65.08-16.14999,97.16-1.92,8.61-3.33,9.71001-12.10001,9.84-9.67999,.14-19.35001,.06-28.95,.03999-1.7,0-2.85001-1.73-2.2-3.3,15.94-38.11,37.34-90.03,57.88-109.89h-.00002Z" fill="currentColor"/>
    <path d="M62.7142,119.67679c-.83-23.74001,2.05-37.16,5.01-68.66,.12-1.32,.59-2.57,1.15-3.77,3.53-7.48,17.34-36.24,25.36-46.17,1.67999-2.08,5.00999-.95,5.17999,1.71,.11,1.78,.03999,3.44-.03,5.22-.89,20.31-3.28999,40.49001-6.19,60.60001-.56,3.86-2.22,7.67999-3.97,11.23-5.73,11.62,1.08-2.28-17.75999,34.56999-1.19,2.34-2.12,5.3-4.33,6.98-1.8,1.37-4.34,.55-4.42-1.7v-.00999Z" fill="currentColor"/>
    <path d="M58.0642,25.15679c2.2-2.13,1.76,4.2,1.52,6.15-4.07,32.61-8.97,65.08-16.15,97.16-1.92,8.61-3.33,9.71001-12.1,9.84-9.68,.14-19.35,.06-28.95,.03999-1.7,0-2.85-1.73-2.2-3.3C16.12419,96.93678,37.5242,45.01678,58.0642,25.15679Z" fill="currentColor"/>
  </g>
</svg>