<?xml version="1.0" encoding="UTF-8"?>
<svg id="b" data-name="Layer 2" xmlns="http://www.w3.org/2000/svg" viewBox="0 0 153.9281 152.135">
  <g id="c" data-name="Layer 1">
    <path d="M143.77403,100.96502c-1.42999,.82996-2.84998,1.75-4.37,2.37-16.88,6.90997-33.75,13.82001-50.67999,20.58997-3.65997,1.46002-7.53998,2.35004-10.06,3.12l.01001-.00995c-.62,.06-1.17999,.08997-1.71002,.07996-.52997,.01001-1.08997-.01996-1.70996-.07996l.00995,.00995c-2.51996-.76996-6.39996-1.65997-10.06-3.12-16.92999-6.76996-33.79999-13.67999-50.67999-20.58997-1.51996-.62-2.94-1.54004-4.37-2.37-7.41998-4.29999-7.70001-9.21002-.20001-12.85999,20.58002-10.01001,41.94-18.12006,63.61005-25.43005,1.15997-.38995,2.27997-.56,3.39996-.53998,1.12-.02002,2.23999,.15002,3.40002,.53998,21.66998,7.31,43.02997,15.42004,63.60999,25.43005,7.5,3.64996,7.22003,8.56-.20001,12.85999Z" fill="currentColor"/>
    <path d="M149.58403,124.22503c-1.63,.94995-4.51996,2.63995-5.19,2.94-14.19995,6.47998-28.60999,12.54999-43.22998,17.95996-7.71002,2.85004-19.63,7.01001-23.83002,7.01001v-.01001c-.12,0-.23999,0-.37-.01001-.13,.01001-.25,.01001-.37,.01001v.01001c-4.20001,0-16.12-4.15997-23.83002-7.01001-14.62-5.40997-29.02997-11.47998-43.22998-17.95996-.66998-.30005-3.56-1.99005-5.19-2.94-5.03998-2.90002-5.40997-3.74005-2.57001-9.25,1.90002-3.68005,2.70001-3.31,7.75-.99005,16.01001,7.32001,32.38,13.67004,48.71002,20.15002,8.16998,3.23999,13.44,4.96002,18.72998,5.01001,5.29004-.04999,10.56-1.77002,18.73004-5.01001,16.32996-6.47998,32.69995-12.83002,48.70996-20.15002,5.04999-2.31995,5.85004-2.69,7.75,.99005,2.84003,5.50995,2.47003,6.34998-2.57001,9.25Z" fill="currentColor"/>
    <path d="M134.33107,29.92911c-.14,10.17-.34,10.34-11.99001,10.25-10-.08-10.24001-.37-10.14-12.06,.09-10.18,.35001-10.41,11.95-10.24,10.14,.15,10.34,.38,10.17999,12.05h.00002Z" fill="currentColor"/>
    <path d="M42.49579,14.94122c-.17317,12.57938-.42055,12.78965-14.83057,12.67834-12.36911-.09896-12.66597-.45766-12.54227-14.91714C15.23426,.11066,15.55587-.17383,29.90402,.03645c12.54227,.18554,12.78965,.47002,12.59174,14.90478h.00002Z" fill="currentColor"/>
    <path d="M68.41106,41.74911c.04,8.09-1.04,9.17-9.13,9.18-8.19,0-9.46-1.21-9.42-8.99,.04-7.6,.99-8.41,9.78-8.36,8.16,.05,8.74,.59,8.78,8.16l-.01,.01Z" fill="currentColor"/>
  </g>
</svg>