<?xml version="1.0" encoding="UTF-8"?>
<svg id="b" data-name="Layer 2" xmlns="http://www.w3.org/2000/svg" viewBox="0 0 133.59003 169.71002">
  <g id="c" data-name="Layer 1">
    <path d="M111.35004,61.54999c16.58997,0,.53998-.26001,22.23999-.26001,0-8.64996-.09003-17.51996-.09003-25.32996h-24.01001v23.25995c-13.66998-7.94995-27.26996-16.82996-40.06995-24.26996,5.42999-6.40002,9.81995-11.57001,14.73999-17.36005-5.97003-6.12-11.17004-11.45996-17.14001-17.58997-6.37,6.20001-11.72003,11.40997-17.77002,17.28998h-.01996c5.76996,6.83002,10.12,11.98999,15.14996,17.95001-13.46997,7.63-27.07001,14.53998-40.15997,21.95001,0-18.35999,0,.47998,0-21.23999H0v24.21997l22.04999,.08002c0,15.96997,.08002,33.29999,.08002,48.85999H.10004v24.46002H24.15002v-22.22003c13.37,7.67999,27.12,15.42004,40.37,23.03003-5.40002,6.16998-9.85999,11.26996-14.84003,16.96997,5.91003,6.34003,11.16003,11.97003,17.12,18.36005,6.70001-7.06006,11.99005-12.63,17.36005-18.29004-5.5-6.32001-9.77002-11.20996-14.90002-17.10999,13.32001-7.60999,27.16003-15.39001,40.38-22.95001v21.88h23.94v-24.17999h-21.78998c0-15.97998-.44-32.15002-.44-47.51001Zm-53.75,3.07001c-.14001,.08002-1.52002,.85999-11.59003,6.51001v26.33997h-10.65997v-32.06c12.54999-7.15997,12.54999-6.81,27.26996-15.02997l6.03003,7.92999c-11.47998,6.5-11.14001,6.33002-11.04999,6.31Z" fill="currentColor"/>
  </g>
</svg>