<?xml version="1.0" encoding="UTF-8"?>
<svg id="b" data-name="Layer 2" xmlns="http://www.w3.org/2000/svg" viewBox="0 0 144.03792 143.83593">
  <g id="c" data-name="Layer 1">
    <path d="M139.09149,47.00565c-1.57001-3.91998-1.40997-7.5,.29004-11.52002,4.44-10.51001,2.85999-20.15997-5.48004-28.33002C125.75153-.83438,115.95154-1.64437,106.1615,2.51566c-5.02002,2.13995-9.29999,2.64996-14.31,1.23999C78.43152-.01437,64.99152,.00565,51.5415,3.84562c-3.83002,1.09003-7.37,1.37-11.47998-.66998C29.98151-1.82437,19.93152-1.12435,11.33148,6.73563,2.82153,14.51566,.58148,24.10563,4.93152,34.86564c1.76001,4.35999,1.27997,8.28003-.29999,12.53998-17.57001,47.42004,16.88,96.56,69.04999,96.43005l.01001-.01001c10.32996,.13,21.57996-2.46002,32.04999-8.08002,31.88-17.09998,46.79999-55.21997,33.34998-88.73999ZM72.40149,123.10563c-27.94,.40002-51.07001-22.26996-51.19995-50.20001-1.34003-26.25995,21.92999-51.19,50.23999-51.08997,28.35999,.08997,50.54999,22.02002,51.34998,50.13,.67999,24.04999-19.27997,50.71997-50.39001,51.15997Z" fill="currentColor"/>
  </g>
</svg>