<?xml version="1.0" encoding="UTF-8"?>
<svg id="b" data-name="Layer 2" xmlns="http://www.w3.org/2000/svg" viewBox="0 0 145.55199 143.32006">
  <g id="c" data-name="Layer 1">
    <circle cx="104.11199" cy="64.8" r="16.8" fill="currentColor"/>
    <circle cx="47.19199" cy="28.2" r="28.2" fill="currentColor"/>
    <path d="M142.19199,133.15001c2.36-1.5,3.12-3.08,3.28-4.91,.05-.38,.08-.77,.08-1.17999,0-.27-.03-.52-.06-.75999-.16-2.7-1.25999-4.53999-8.23-6.81-1.21001-.39-2.53999-.78-3.97-1.17-7.89999-2.37-15.56-3.78-24.24001-4.53-3.42999-.44-6.99001-.84-10.63-1.17999-1.71001-.52-2.31-1.28-2.72-2.44-.55-2.95-1.64999-5.7-3.19-8.14999-3.78999-6.49001-9.84-10.25-17.82001-10.81999-.49001-.03999-.98-.07001-1.48-.08h-.46999c-.27,0-.53,.00999-.8,.02-9.24,.17-16.18,4.64-19.99,12.7-.62,1.22-1.15,2.49001-1.55,3.82001-.93,2.47-1.59,3.97-3.63,4.86-4.92,.42-9.65,.95-14.1,1.57001-4.28,.46001-8.51,1.21001-12.7,2.17-5.5,1.14-10.17,2.42999-13.73,3.8-.53,.19-1.04,.39999-1.54,.63C.44199,122.59005,.07199,124.36006,.04199,126.57006c-.02,.25999-.05,.52-.04,.8,0,.16,.03,.31,.04,.47,.06,2.53,.72,4.56,5.71,6.64,.94,.41,1.93,.75999,2.94,1.08,1.65,.55,3.48,1.08,5.48,1.59,8.46,2.28999,17.02,3.57001,25.62,4.37,10.22,1.13,21.52,1.78999,32.87,1.8h.10001c10.47,0,20.99001-.59,30.64999-1.59,10.14999-.84,20.2-2.3,30.08-5.17999,.46001-.13,.91-.25999,1.35001-.39,.09-.03,.17-.05,.25999-.08,2.28999-.71001,4.78999-1.49001,6.75999-2.73,.08-.05,.16-.10001,.25-.14999,.02-.02,.05-.03,.07001-.05l.00999-.00008Z" fill="currentColor"/>
  </g>
</svg>