<?xml version="1.0" encoding="UTF-8"?>
<svg id="b" data-name="Layer 2" xmlns="http://www.w3.org/2000/svg" viewBox="0 0 138.83363 155.16502">
  <g id="c" data-name="Layer 1">
    <path d="M134.41881,63.47965c2.38-4.38,4.67999-8.88,4.39001-14.13l-.01001,.01001c.10999-11.72998-7.15997-19.40002-21.06-20.47998-12.40002-.96002-22.03998-4.94-29.13-16.03003-11.12-17.39996-27.46002-17.03998-38.95001,.54004-6.17999,9.45996-14.26001,14.06995-25.40997,15.10999C1.0388,30.65964-5.55116,42.75968,4.6588,64.06968c4.35999,9.08997,4.46002,17.66998,.14001,26.78998-10.40002,21.92999-3.92999,33.56,20.14001,35.91998,10.78998,1.06,18.57001,5.70001,24.54999,14.79004,11.84998,18.01996,27.84998,18.14996,39.56,.25,6.19-9.46002,14.25-14.07001,25.40997-15.11005,23.21002-2.15997,29.82001-14.26996,19.59003-35.56995-4.54999-9.47003-4.63-18.45001,.37-27.66003Zm-18.48999,40.78998c-20.78003,1.82001-35.45001,9.96002-46.37,26.90002-11.54999-16.66998-26-25.21002-45.70001-26.81,6.98999-17.87,8.75-34.96002-.84998-53,19.89996-2.33002,34.96997-10.35999,46.39996-26.96002,11.29999,16.30005,25.73999,24.84003,45.44,26.44-6.94,17.88-8.77002,34.96002,1.08002,53.42004v.00995Z" fill="currentColor"/>
  </g>
</svg>