<?xml version="1.0" encoding="UTF-8"?>
<svg id="b" data-name="Layer 2" xmlns="http://www.w3.org/2000/svg" viewBox="0 0 143.48001 143.46998">
  <g id="c" data-name="Layer 1">
    <path d="M143.40997,41.97001l-19.62-19.62,3.55,23.38c.03,.19-.2,.31-.34,.17l-29.17999-29.18c-.14-.14-.02-.37,.17-.34l23.38,3.55L101.5,.06s-.09-.06-.14-.06H42.1c-.05,0-.1,.02-.14,.06L.06,41.96s-.06,.09-.06,.14v59.25999c0,.05,.02,.10001,.06,.14l19.53,19.53-9.71-45.05c-.04-.19,.2-.32001,.34-.17999l57.77,57.77c.14,.14,.01,.38-.18,.34l-45.05-9.71001,19.21,19.20999s.09,.06,.14,.06h59.26c.05,0,.10001-.02,.14-.06l19.24001-19.24001-45.14,9.75c-.19,.03999-.32001-.2-.17999-.34l57.75999-57.75999c.14-.14,.38-.00999,.34,.17999l-9.75,45.14,19.64-19.64s.06-.09,.06-.14V42.09999c0-.05-.02-.1-.06-.14l-.01004,.01002Z" fill="currentColor"/>
  </g>
</svg>