<?xml version="1.0" encoding="UTF-8"?>
<svg id="b" data-name="Layer 2" xmlns="http://www.w3.org/2000/svg" viewBox="0 0 145.97998 138.14001">
  <g id="c" data-name="Layer 1">
    <path d="M120.83002,8.09003c-1.71002-3.60004-2.89001-6.08002-3.84003-8.09003H27.58997C18.65997,27.53003,9.83997,54.70001,0,85.05005c25-7.13,46.95001-13.39001,69.67999-19.88-2.47998-12.77002-4.65997-24.02002-7.26001-37.43005,20.14001-6.76996,38.77002-13.03998,58.41003-19.64996ZM42.22998,22.97003c-4.21997,0-7.64001-3.41998-7.64001-7.64001s3.42004-7.64001,7.64001-7.64001,7.64001,3.42004,7.64001,7.64001-3.41998,7.64001-7.64001,7.64001Z" fill="currentColor"/>
    <path d="M125.59998,22.98004c-16.01996,5.10999-30.29999,9.66998-46.79999,14.92999,7.56,26.87,14.63,51.97998,22.38,79.5,16.31-11.78003,29.89001-21.59003,44.79999-32.35999-6.88-20.95001-13.41998-40.86005-20.38-62.07001Zm-18.75,38.89996c-5.75,0-10.40997-4.65997-10.40997-10.40997s4.65997-10.41003,10.40997-10.41003,10.41003,4.66003,10.41003,10.41003-4.66003,10.40997-10.41003,10.40997Z" fill="currentColor"/>
    <path d="M88.64999,126.11002c-5.22,3.98-10.06,7.67999-15.77,12.03-19.71-14.37-38.84-28.32001-61.19-44.61,22.17-6.41,40.89-11.81999,61.12-17.66,5.46001,17.31999,10.48,33.22,15.85001,50.24001h-.00999Z" fill="currentColor"/>
  </g>
</svg>