<?xml version="1.0" encoding="UTF-8"?>
<svg id="b" data-name="Layer 2" xmlns="http://www.w3.org/2000/svg" viewBox="0 0 93.54787 155.74465">
  <g id="c" data-name="Layer 1">
    <path d="M79.40616,70.10463c-12.13-18.87-21.57996-38.81-26.03998-60.92999-.32001-1.60999-.66998-3.27997-1.40997-4.72998C50.92618,2.41463,49.91617,.12465,47.08615,.00466c-2.88995-.12-4.08997,2.09998-5.01996,4.16998-.94,2.08002-1.34003,4.41003-1.88,6.66003-4.20001,17.51996-10.47998,34.12994-19.91003,49.62994-6.01996,9.89001-12.62,19.51001-16.79999,30.49005-12.33997,32.38995,9.56,64.90997,43.79999,64.77997l-.00995,.01001c26.44995-.09998,45.69995-19.40997,46.26996-45.89001,.33002-15.16998-6.35999-27.66998-14.13-39.75Zm.04004,54.70001c-6.52002,13.39001-18.86005,16.48999-31.35004,18.19l-.01001,.01001c-13.79999-1.04999-25.56995-4.53003-32.91998-16.53003-1.34998-2.19995-3.13-5.01996-1.70996-7.44,1.87994-3.20996,4.72998-.70996,7.02997,.08002,17.88,6.19,35.70001,6.16998,53.52002-.27002,2.06-.75,4.32996-2.72998,6.35999-.42999,1.91998,2.17999,.04999,4.41003-.91998,6.39001Z" fill="currentColor"/>
  </g>
</svg>