<svg fill="currentColor" xmlns="http://www.w3.org/2000/svg" viewBox="0 0 178.333 209.022"><path d="M0 0v89.188c0 91.065 86.35 118.961 87.224 119.223l1.92.611 1.965-.61c.873-.263 87.224-28.159 87.224-119.224V0zm165.236 89.188c0 75-63.737 101.63-76.091 106.04-12.355-4.454-76.048-31.04-76.048-106.04V13.097h152.14z"/><path d="m89.16 20.16 11.692 21.792 24.338 4.386-17.112 17.854 3.35 24.503-22.269-10.757-22.268 10.757 3.35-24.503-17.112-17.854 24.338-4.386zm40.017 73.393v16.633l-40.032 16.328-40.033-16.328V93.553l40.033 16.328zm0 35.579v16.59l-40.032 16.327-40.033-16.327v-16.59l40.033 16.284z"/></svg>
