<svg fill="currentColor" xmlns="http://www.w3.org/2000/svg" viewBox="-20 -20 294.93 235.68"><path d="M232.43.97c-27.36 21.23-54.92 43.3-79.84 71.04-8.74 9.71-17.15 20.11-25.12 31.42-7.97-11.31-16.38-21.71-25.12-31.42C77.43 44.27 49.87 22.2 22.51.97c28.22 6.23 59.52 20.7 90.44 41.2l2.53-6.69c.12-.33.25-.68.38-1.02.34-.92.7-1.85 1.05-2.8.47-1.25.95-2.53 1.43-3.82.28-.74.55-1.48.83-2.22.41-1.08.81-2.17 1.22-3.25l.29-.79c.17-.43.33-.86.49-1.29l1.96-5.23.71-1.9c.3-.79.59-1.57.88-2.34.27-.71.53-1.41.78-2.09l.47-1.26c.41-1.07.79-2.11 1.16-3.09l.34-.91.34.91c.37.98.75 2.02 1.16 3.09l.47 1.26c.25.68.51 1.38.78 2.09.29.77.58 1.55.88 2.34l.71 1.9 1.96 5.23c.16.43.32.86.49 1.29l.29.79c.41 1.08.81 2.17 1.22 3.25.28.74.55 1.48.83 2.22.48 1.29.96 2.57 1.43 3.82.35.95.71 1.88 1.05 2.8 1.03 2.75 2 5.37 2.89 7.72.01 0 .01-.01.02-.01 30.92-20.5 62.22-34.97 90.44-41.2m-61.52 87.4c-9.44 10.57-19.38 22.86-29.46 36.71a305 305 0 0 0-9.76-15.5l1.5-2.12c7.51-10.66 15.56-20.72 24.61-30.77.03-.04.07-.07.1-.11 4.39 3.82 8.73 7.76 13.01 11.79m17.29 17.16c-10.87 12.3-22.35 26.84-33.93 43.39-2.79-5.75-5.68-11.29-8.68-16.65 10.18-14.17 20.35-27.1 30.58-38.87 4.07 3.95 8.08 8 12.03 12.13m65.28 88.51c-21.04-14.84-48.39-21.65-91.14-27.28-1.42-3.39-2.87-6.71-4.37-9.97 11.75-16.93 23.45-32.2 35.24-45.92 23.36 25.23 44.16 53.41 60.27 83.17m-130.23-84.46c-11.32 16.87-21.66 35.72-30.65 57.18-42.75 5.63-70.1 12.44-91.14 27.28 23.88-44.12 58.07-84.75 95.59-117.47.03.04.06.08.1.12 9.04 10.05 17.09 20.11 24.6 30.77z"/></svg>
