<svg fill="currentColor" xmlns="http://www.w3.org/2000/svg" viewBox="0 0 24 24"><path d="M20.8 12c0-.5 0-1-.1-1.5l2.7-2.4-2.4-4-3.4 1.1c-.4-.3-.8-.6-1.2-.8s-.9-.4-1.3-.6L14.3.3H9.6l-.7 3.4c-.5.2-.9.4-1.4.6l-1.2.9L3 4.1l-2.4 4 2.7 2.4c-.1.5-.1 1-.1 1.5s0 1 .1 1.5L.6 15.9l2.4 4 3.4-1.1c.4.3.8.6 1.2.8s.9.4 1.3.6l.8 3.5h4.7l.8-3.5c.5-.2.9-.4 1.3-.6s.8-.5 1.2-.8l3.4 1.1 2.4-4-2.7-2.4c-.1-.5 0-1 0-1.5m-5.2 3.6q-1.5 1.5-3.6 1.5c-2.1 0-2.6-.5-3.6-1.5Q6.9 14.1 6.9 12c0-2.1.5-2.6 1.5-3.6Q9.9 6.9 12 6.9c2.1 0 2.6.5 3.6 1.5q1.5 1.5 1.5 3.6c0 2.1-.5 2.6-1.5 3.6"/></svg>
