<svg fill="currentColor" xmlns="http://www.w3.org/2000/svg" viewBox="0 0 18.381 18.381"><path d="M9.19 0C4.123 0 0 4.123 0 9.19s4.123 9.19 9.19 9.19 9.19-4.122 9.19-9.19S14.259 0 9.19 0m0 1.412c4.051 0 7.385 3.113 7.743 7.072H12.91A3.794 3.794 0 0 0 9.19 5.4a3.794 3.794 0 0 0-3.72 3.085H1.448c.358-3.96 3.692-7.073 7.742-7.073m2.38 7.778a2.38 2.38 0 0 1-2.38 2.38c-1.312 0-2.38-1.067-2.38-2.38s1.068-2.38 2.38-2.38a2.38 2.38 0 0 1 2.38 2.38m-2.38 7.78c-4.05 0-7.384-3.115-7.742-7.074H5.47a3.794 3.794 0 0 0 3.72 3.085 3.794 3.794 0 0 0 3.72-3.085h4.023c-.358 3.96-3.692 7.073-7.743 7.073"/></svg>
