<svg fill="currentColor" xmlns="http://www.w3.org/2000/svg" viewBox="0 0 32 32" xml:space="preserve"><path d="M12 17c.8-4.2 1.9-5.3 6.1-6.1.5-.1.8-.5.8-1s-.3-.9-.8-1C13.9 8.1 12.8 7 12 2.8c-.1-.5-.5-.8-1-.8s-.9.3-1 .8C9.2 7 8.1 8.1 3.9 8.9c-.4.1-.8.5-.8 1s.3.9.8 1c4.2.8 5.3 1.9 6.1 6.1.1.5.5.8 1 .8s.9-.4 1-.8m10 7c-2.8-.6-3.4-1.2-4-4-.1-.5-.5-.8-1-.8s-.9.3-1 .8c-.6 2.8-1.2 3.4-4 4-.5.1-.8.5-.8 1s.3.9.8 1c2.8.6 3.4 1.2 4 4 .1.5.5.8 1 .8s.9-.3 1-.8c.6-2.8 1.2-3.4 4-4 .5-.1.8-.5.8-1s-.4-.9-.8-1m7.2-10c-2.2-.4-2.7-.9-3.1-3.1-.1-.5-.5-.8-1-.8s-.9.3-1 .8c-.4 2.2-.9 2.7-3.1 3.1-.5.1-.8.5-.8 1s.3.9.8 1c2.2.4 2.7.9 3.1 3.1.1.5.5.8 1 .8s.9-.3 1-.8c.4-2.2.9-2.7 3.1-3.1.5-.1.8-.5.8-1s-.3-.9-.8-1"/></svg>
