<?xml version="1.0" standalone="no"?>
<!DOCTYPE svg PUBLIC "-//W3C//DTD SVG 20010904//EN"
 "http://www.w3.org/TR/2001/REC-SVG-20010904/DTD/svg10.dtd">
<svg version="1.0" xmlns="http://www.w3.org/2000/svg"
 width="1200.000000pt" height="1200.000000pt" viewBox="0 0 1200.000000 1200.000000"
 preserveAspectRatio="xMidYMid meet">

<g transform="translate(0.000000,1200.000000) scale(0.100000,-0.100000)"
fill="#000000" stroke="none">
<path d="M5761 10072 c-129 -559 -238 -1027 -242 -1040 -5 -12 -93 -115 -196
-229 -104 -114 -302 -333 -442 -487 -139 -155 -265 -293 -280 -309 l-27 -27
-194 59 c-107 32 -359 109 -560 171 -201 61 -444 136 -540 165 -415 126 -677
206 -705 215 -36 12 -48 24 450 -440 198 -184 488 -454 644 -600 156 -146 296
-275 312 -288 l29 -23 0 -1237 -1 -1237 -289 -270 c-160 -148 -305 -283 -324
-300 -62 -57 -731 -680 -791 -737 -54 -52 -57 -57 -30 -49 17 5 165 50 330
101 165 51 386 118 490 150 105 32 325 99 490 150 165 51 388 119 495 151
l195 59 31 -33 c121 -126 907 -1003 914 -1020 5 -12 23 -85 40 -162 17 -77 38
-167 46 -200 24 -107 125 -547 153 -670 104 -461 237 -1025 241 -1025 3 0 83
341 178 758 96 416 178 771 182 787 5 17 18 75 30 130 12 55 35 156 51 225 16
69 32 135 34 147 3 12 96 122 207 245 111 123 312 345 447 493 134 149 256
282 270 298 l27 27 194 -59 c107 -32 330 -100 495 -151 165 -51 408 -125 540
-165 240 -73 395 -121 640 -196 72 -22 137 -42 145 -45 18 -5 -31 43 -380 367
-151 140 -408 379 -570 530 -162 151 -341 317 -397 369 l-102 95 -1 1237 0
1237 29 23 c21 17 428 394 607 563 6 5 168 156 360 335 491 457 475 441 439
431 -16 -5 -142 -43 -280 -86 -137 -42 -358 -109 -490 -150 -132 -40 -375
-115 -540 -165 -165 -51 -388 -119 -495 -151 l-194 -59 -27 27 c-15 16 -138
152 -275 303 -136 151 -335 370 -441 487 -106 116 -197 222 -201 235 -5 13
-114 481 -243 1040 -129 560 -236 1018 -239 1018 -3 0 -110 -458 -239 -1018z
m575 -2644 c181 -199 364 -401 406 -448 l78 -85 0 -895 0 -895 -128 -140 c-70
-78 -252 -279 -406 -448 -153 -169 -282 -307 -286 -307 -4 0 -156 163 -337
362 -180 199 -363 401 -405 448 l-78 85 0 895 1 895 81 90 c503 556 732 805
738 805 4 0 156 -163 336 -362z"/>
</g>
</svg>
