<?xml version="1.0" encoding="utf-8"?>
<svg viewBox="9.6 7.2 20 20" width="20" height="20" xmlns="http://www.w3.org/2000/svg">
  <path d="M 23.504 15.12 L 23.504 19.55 Q 23.504 21.06 23.34 21.749 Q 23.176 22.438 22.659 23.036 Q 22.142 23.635 21.412 23.898 Q 20.682 24.16 19.78 24.16 Q 18.591 24.16 17.803 23.885 Q 17.016 23.611 16.548 23.028 Q 16.08 22.446 15.883 21.802 Q 15.687 21.158 15.687 19.755 L 15.687 15.12 Q 15.687 13.291 16.002 12.381 Q 16.318 11.47 17.258 10.92 Q 18.197 10.371 19.534 10.371 Q 20.625 10.371 21.486 10.752 Q 22.348 11.134 22.774 11.683 Q 23.201 12.233 23.352 12.922 Q 23.504 13.611 23.504 15.12 Z M 20.19 14.005 Q 20.19 12.947 20.088 12.68 Q 19.985 12.413 19.608 12.413 Q 19.239 12.413 19.12 12.696 Q 19.001 12.979 19.001 14.005 L 19.001 20.485 Q 19.001 21.642 19.111 21.88 Q 19.222 22.118 19.591 22.118 Q 19.96 22.118 20.075 21.839 Q 20.19 21.56 20.19 20.584 Z" style="fill: rgb(51, 51, 51);"/>
</svg>