<?xml version="1.0" encoding="utf-8"?>
<svg viewBox="9.6 7.2 30 30" width="30" height="30" xmlns="http://www.w3.org/2000/svg">
  <path d="M 19.563 26.642 L 19.563 28.906 L 12.27 28.906 L 12.27 27.011 Q 15.51 21.712 16.121 20.453 Q 16.732 19.194 16.732 18.488 Q 16.732 17.947 16.548 17.68 Q 16.363 17.413 15.986 17.413 Q 15.609 17.413 15.424 17.709 Q 15.239 18.004 15.239 18.882 L 15.239 20.145 L 12.27 20.145 L 12.27 19.661 Q 12.27 18.545 12.385 17.902 Q 12.5 17.258 12.951 16.634 Q 13.402 16.011 14.124 15.691 Q 14.846 15.371 15.855 15.371 Q 17.832 15.371 18.845 16.351 Q 19.858 17.331 19.858 18.833 Q 19.858 19.973 19.288 21.244 Q 18.718 22.516 15.929 26.642 Z M 28.075 15.625 L 28.075 17.75 L 23.965 17.75 L 23.965 20.006 Q 24.736 19.095 25.95 19.095 Q 27.32 19.095 28.021 19.862 Q 28.723 20.629 28.723 22.811 L 28.723 24.706 Q 28.723 26.117 28.587 26.777 Q 28.452 27.438 28.009 28 Q 27.566 28.561 26.774 28.861 Q 25.983 29.16 24.843 29.16 Q 23.563 29.16 22.587 28.713 Q 21.611 28.266 21.2 27.38 Q 20.79 26.494 20.79 24.64 L 20.79 23.919 L 24.104 23.919 L 24.104 24.747 Q 24.104 26.035 24.195 26.576 Q 24.285 27.118 24.818 27.118 Q 25.064 27.118 25.216 26.962 Q 25.368 26.806 25.38 26.626 Q 25.392 26.445 25.409 25.059 L 25.409 22.426 Q 25.409 21.679 25.253 21.408 Q 25.097 21.138 24.736 21.138 Q 24.506 21.138 24.35 21.277 Q 24.195 21.417 24.149 21.577 Q 24.104 21.736 24.104 22.319 L 20.823 22.319 L 20.963 15.625 Z M 36.656 26.642 L 36.656 28.906 L 29.364 28.906 L 29.364 27.011 Q 32.604 21.712 33.215 20.453 Q 33.826 19.194 33.826 18.488 Q 33.826 17.947 33.642 17.68 Q 33.457 17.413 33.08 17.413 Q 32.702 17.413 32.518 17.709 Q 32.333 18.004 32.333 18.882 L 32.333 20.145 L 29.364 20.145 L 29.364 19.661 Q 29.364 18.545 29.479 17.902 Q 29.593 17.258 30.045 16.634 Q 30.496 16.011 31.218 15.691 Q 31.939 15.371 32.948 15.371 Q 34.925 15.371 35.939 16.351 Q 36.952 17.331 36.952 18.833 Q 36.952 19.973 36.381 21.244 Q 35.811 22.516 33.022 26.642 Z" style="fill: rgb(51, 51, 51);"/>
</svg>