 <svg  version="1.0" xmlns="http://www.w3.org/2000/svg"  width="160.000000pt" height="160.000000pt" viewBox="0 0 160.000000 160.000000"  preserveAspectRatio="xMidYMid meet">  <g transform="translate(0.000000,160.000000) scale(0.050000,-0.050000)" fill="#000000" stroke="none"> <path d="M1762 2861 c-16 -10 -75 -13 -132 -7 -216 23 -440 -342 -340 -554 34 -71 -335 -913 -415 -948 -85 -37 -189 -182 -236 -329 l-43 -137 51 -99 c27 -55 64 -111 81 -126 18 -14 32 -40 32 -57 0 -16 25 -62 55 -102 30 -39 64 -90 75 -112 27 -54 229 -155 280 -140 22 7 94 15 160 18 407 19 639 225 621 554 -7 131 340 1017 398 1019 54 1 162 134 214 264 81 198 76 233 -56 380 -37 41 -67 85 -67 97 0 30 -220 247 -270 267 -59 23 -375 33 -408 12z m138 -80 c0 -80 -46 -119 -105 -89 -56 30 -57 32 -24 69 36 40 129 54 129 20z m277 -30 c24 -23 22 -27 -10 -24 -25 2 -51 -25 -82 -86 -51 -101 -36 -135 76 -182 33 -13 59 -32 59 -41 0 -26 -249 72 -417 164 -149 82 -211 95 -109 23 72 -51 308 -169 431 -215 95 -36 114 -68 76 -129 -12 -19 -11 -39 1 -53 13 -16 9 -34 -13 -56 -17 -17 -33 -50 -34 -72 -4 -50 -19 -50 -156 -2 -227 80 -526 243 -604 329 -73 81 -12 276 65 208 24 -21 24 -20 3 9 -49 64 38 156 148 156 37 0 79 -27 138 -90 104 -110 141 -113 181 -15 52 125 164 160 247 76z m139 -142 c53 -38 60 -79 9 -52 -19 10 -60 16 -90 15 -30 -2 -55 -2 -55 1 0 67 66 84 136 36z m-833 -437 c51 31 92 23 82 -17 -6 -21 8 -56 33 -83 58 -62 10 -212 -67 -212 -293 0 -477 -360 -302 -590 66 -87 32 -225 -56 -225 -24 -1 -52 -3 -63 -5 -50 -11 -70 4 -70 54 0 29 -19 74 -43 100 -35 37 -40 54 -23 91 11 25 108 245 216 490 185 418 199 443 232 413 21 -19 46 -25 61 -16z m416 -106 c4 -3 0 -15 -11 -26 -46 -46 -264 68 -242 126 10 27 180 -40 253 -100z m-228 -171 l-46 -105 -107 -11 c-281 -27 -399 -309 -211 -501 l67 -68 -49 -110 c-28 -60 -55 -98 -60 -83 -5 14 7 62 27 106 28 64 31 87 12 114 -89 122 -104 159 -104 255 0 174 121 306 296 323 96 9 101 13 145 107 61 130 89 105 30 -27z m85 -26 l-42 -110 41 -45 c191 -210 48 -554 -232 -554 -75 0 -80 -4 -121 -101 -24 -55 -52 -95 -62 -89 -10 6 4 57 30 114 48 103 48 103 144 105 289 4 412 330 199 528 l-50 47 52 108 c69 141 95 139 41 -3z m177 59 c105 22 122 -11 69 -132 -26 -58 -61 -145 -77 -193 l-31 -87 -24 70 c-13 38 -43 97 -68 131 l-44 62 42 95 c30 67 47 87 58 69 11 -18 37 -23 75 -15z m-232 -299 c128 -122 53 -346 -128 -380 -266 -50 -412 272 -187 413 92 58 236 43 315 -33z m-796 -582 c-14 -96 290 -292 539 -347 111 -25 111 -25 71 -65 -30 -30 -34 -44 -15 -55 27 -17 11 -60 -22 -60 -11 0 -44 -23 -74 -51 -69 -65 -140 -57 -334 40 -310 155 -413 319 -338 539 l33 95 57 -67 c59 -70 75 -59 30 22 -15 26 -22 65 -17 86 17 64 81 -62 70 -137z m782 18 c-37 -74 -67 -146 -67 -159 0 -59 -142 -46 -196 19 -49 59 30 195 114 196 55 0 153 37 213 78 1 1 -28 -60 -64 -134z m-310 -218 c43 -23 -45 -81 -92 -61 -158 71 -186 94 -165 134 20 38 84 20 257 -73z"/> <path d="M1746 2427 c-14 -36 25 -206 55 -235 11 -11 51 -8 103 9 47 15 97 27 111 26 13 -2 20 5 14 14 -5 9 -1 22 11 29 47 29 12 67 -99 108 -66 24 -125 52 -132 63 -18 29 -49 23 -63 -14z"/> <path d="M1063 720 c-114 -52 -104 -94 43 -166 173 -86 212 -50 135 121 -44 96 -57 100 -178 45z"/> </g> </svg> 