<svg xmlns="http://www.w3.org/2000/svg" width="160" height="160" viewBox="0 0 160 160" version="1.1"><path d="M 74.989 17.647 C 67.271 20.891, 60.891 36.996, 64.103 45.127 C 65.478 48.607, 47.664 89.746, 43.949 91.669 C 40.137 93.643, 34.303 100.545, 32.998 104.626 C 32.316 106.757, 31.363 108.928, 30.879 109.450 C 28.817 111.678, 30.012 118.116, 33.500 123.567 C 35.425 126.577, 37 129.464, 37 129.985 C 37 130.505, 38.255 132.409, 39.790 134.215 C 41.324 136.022, 43.107 138.721, 43.752 140.214 C 46.416 146.382, 68.580 150.719, 74.324 146.196 C 74.971 145.687, 77.466 145.020, 79.868 144.714 C 90.334 143.383, 102.462 123.337, 97.927 114.864 C 97.238 113.576, 97.663 111.639, 99.478 107.795 C 100.854 104.883, 105.328 94.860, 109.420 85.523 C 113.513 76.186, 117.455 68.362, 118.181 68.136 C 128.480 64.935, 134.320 44.320, 127 37 C 124.800 34.800, 123 32.360, 123 31.578 C 123 30.796, 121.200 28.615, 119 26.732 C 116.800 24.849, 115 22.819, 115 22.222 C 115 17.165, 84.450 13.672, 74.989 17.647 M 90.315 20.079 C 89.154 20.509, 87.894 21.363, 87.513 21.978 C 87.075 22.688, 86.397 22.756, 85.661 22.164 C 77.912 15.936, 63.109 31.098, 68.965 39.264 C 70.242 41.044, 70.682 41.938, 69.943 41.250 C 66.996 38.507, 65.839 41.051, 68.438 44.559 C 69.828 46.435, 69.922 46.438, 71.236 44.666 C 73.362 41.799, 83.508 48.183, 81.824 51.328 C 79.721 55.258, 92.312 61.343, 95.123 57.756 C 97.498 54.726, 109.358 58.141, 108.708 61.668 C 108.275 64.018, 112.989 65.709, 116.366 64.413 C 118.745 63.500, 118.365 62.002, 115.750 61.985 C 114.513 61.976, 112.825 61.510, 112 60.948 C 110.913 60.207, 111.510 60.100, 114.163 60.558 C 121.448 61.815, 125.935 56.631, 126.327 46.505 C 126.511 41.751, 123.080 36.648, 120.394 37.679 C 119.392 38.064, 119 37.365, 119 35.196 C 119 28.816, 111.988 25.327, 109.010 30.224 C 106.727 33.978, 107.094 34.538, 113.058 36.409 C 116.818 37.588, 117.073 37.817, 114.718 37.901 C 111.310 38.022, 105 35.501, 105 34.019 C 105 31.709, 107.902 26.151, 109.656 25.102 C 112.261 23.545, 108.060 19.994, 103.639 20.015 C 99.529 20.035, 98.684 20.680, 96.104 25.769 C 93.812 30.290, 93.348 30.341, 88.500 26.605 C 85.963 24.650, 87.852 24.507, 90.618 26.445 C 92.456 27.732, 96 23.872, 96 20.583 C 96 19.710, 92.218 19.375, 90.315 20.079 M 84.618 29.191 C 86.283 31.885, 110.374 42.258, 117.500 43.349 C 122.820 44.163, 119.761 42.732, 110.497 40.073 C 106.646 38.967, 99.127 35.872, 93.790 33.195 C 88.452 30.518, 84.325 28.716, 84.618 29.191 M 87.634 38.783 C 86.814 40.110, 89.051 48.797, 90.529 50.024 C 91.612 50.923, 93.162 50.615, 97.462 48.646 C 103.699 45.791, 104.341 44.364, 100.062 42.872 C 98.446 42.308, 95.426 40.982, 93.350 39.924 C 89.177 37.796, 88.347 37.630, 87.634 38.783 M 89 41.267 C 89 43.641, 91.133 49, 92.078 49 C 99.484 49, 101.862 44.792, 95.750 42.502 C 92.862 41.421, 90.162 40.377, 89.750 40.184 C 89.338 39.991, 89 40.479, 89 41.267 M 72.313 47.330 C 71.866 48.087, 70.880 48.904, 70.123 49.146 C 65.857 50.506, 47.149 98.023, 49.690 101.043 C 51.473 103.162, 52.034 104.730, 51.611 106.414 C 50.954 109.031, 53.368 110.761, 55.377 109.113 C 55.995 108.606, 57.608 108.036, 58.963 107.846 C 63.479 107.212, 64.798 101.164, 61.506 96.188 C 56.249 88.244, 57.522 78.261, 64.583 72.061 C 68.045 69.022, 69.920 68.285, 75.493 67.774 C 80.253 67.338, 83.726 59.515, 80.647 56.165 C 79.466 54.881, 78.633 53.014, 78.796 52.016 C 79.205 49.507, 73.473 45.364, 72.313 47.330 M 81.716 64 C 79.782 68.578, 79.321 69, 76.269 69 C 62.324 69, 54.764 84.472, 63.092 95.969 C 65.960 99.927, 65.960 99.927, 63.980 104.547 C 61.643 109.998, 61.642 110.007, 63.250 109.976 C 67.336 109.899, 69.035 99.781, 65.600 95.980 C 56.203 85.578, 63.357 70.151, 77.117 71.144 C 81.290 71.446, 82.735 69.713, 85.455 61.142 C 86.846 56.760, 83.786 59.099, 81.716 64 M 96.638 60.500 C 96.322 61.325, 95.143 62, 94.018 62 C 91.429 62, 87.024 70.349, 88.531 72.401 C 93.232 78.799, 93.500 79.533, 93.500 86.034 C 93.500 95.996, 85.853 104, 76.336 104 C 72.123 104, 68.854 110.525, 71.310 114.032 C 72.156 115.241, 72.631 116.799, 72.363 117.496 C 71.405 119.994, 77.636 121.131, 78.742 118.659 C 79.568 116.812, 80.533 116.500, 85.421 116.500 C 91.133 116.500, 91.133 116.500, 101.567 92.582 C 113.239 65.822, 112.868 67, 109.622 67 C 106.821 67, 104.733 64.859, 105.524 62.797 C 105.918 61.770, 104.932 60.996, 102.175 60.171 C 97.272 58.702, 97.330 58.698, 96.638 60.500 M 85.438 66.354 C 82.988 71.707, 82.988 71.707, 86.401 75.327 C 96.084 85.594, 87.285 102.880, 73.697 100.282 C 71.110 99.788, 68.620 103.091, 66.561 109.750 C 65.265 113.942, 67.923 112.086, 70.500 107 C 72.922 102.220, 73.215 102, 77.149 102 C 90.412 102, 97.650 84.551, 88.395 74.890 C 85.714 72.092, 85.714 72.092, 87.857 67.111 C 91.447 58.765, 89.230 58.071, 85.438 66.354 M 71.966 83.064 C 70.405 85.981, 72.422 88.102, 76.496 87.827 C 79.191 87.646, 79.630 87.278, 79.211 85.555 C 78.045 80.762, 73.951 79.354, 71.966 83.064 M 41.512 100.962 C 41.169 102.041, 41.438 103.954, 42.108 105.212 C 43.200 107.262, 43.160 107.362, 41.724 106.177 C 40.842 105.450, 39.948 103.875, 39.738 102.677 C 39.421 100.874, 38.985 101.273, 37.200 105 C 24.732 131.026, 78.535 155.379, 91.660 129.651 C 94.080 124.909, 94.142 122.458, 91.783 124.817 C 91.133 125.468, 88.778 125.939, 86.550 125.864 C 84.052 125.780, 83.458 125.577, 85 125.334 C 90.323 124.495, 91.796 123.973, 92.264 122.759 C 93.152 120.451, 83.160 121.833, 81.897 124.193 C 80.763 126.312, 77.701 126.228, 70.255 123.874 C 67.504 123.005, 67.162 122.566, 68.005 120.990 C 68.552 119.968, 69 118.735, 69 118.250 C 69 116.805, 56.726 111.352, 56.302 112.608 C 54.774 117.132, 53.536 117.247, 49.065 113.279 C 45.154 109.809, 44.829 109.188, 45.887 107.211 C 46.877 105.362, 46.709 104.526, 44.845 102.004 C 42.214 98.446, 42.302 98.473, 41.512 100.962 M 54.044 124.250 C 47.800 127.457, 50.450 131.868, 59.658 133.596 C 64.273 134.461, 64.398 134.138, 61.963 127.632 C 59.545 121.168, 59.817 121.284, 54.044 124.250 M 54.250 125.493 C 49.967 127.352, 50.092 127.671, 56.208 130.505 C 62.394 133.371, 62.373 133.380, 60.673 128.469 C 59.093 123.905, 58.520 123.640, 54.250 125.493 M 47.697 137.051 C 47.156 139.119, 47.950 139.963, 52.700 142.375 C 56.702 144.407, 56.659 144.410, 57.288 142.005 C 57.705 140.411, 56.844 139.525, 52.999 137.593 C 48.420 135.293, 48.163 135.267, 47.697 137.051" stroke="none" fill="#1b2028" fill-rule="evenodd"/><path d="M 90.315 20.079 C 89.154 20.509, 87.894 21.363, 87.513 21.978 C 87.075 22.688, 86.397 22.756, 85.661 22.164 C 77.912 15.936, 63.109 31.098, 68.965 39.264 C 70.242 41.044, 70.682 41.938, 69.943 41.250 C 66.996 38.507, 65.839 41.051, 68.438 44.559 C 69.828 46.435, 69.922 46.438, 71.236 44.666 C 73.362 41.799, 83.508 48.183, 81.824 51.328 C 79.721 55.258, 92.312 61.343, 95.123 57.756 C 97.498 54.726, 109.358 58.141, 108.708 61.668 C 108.275 64.018, 112.989 65.709, 116.366 64.413 C 118.745 63.500, 118.365 62.002, 115.750 61.985 C 114.513 61.976, 112.825 61.510, 112 60.948 C 110.913 60.207, 111.510 60.100, 114.163 60.558 C 121.448 61.815, 125.935 56.631, 126.327 46.505 C 126.511 41.751, 123.080 36.648, 120.394 37.679 C 119.392 38.064, 119 37.365, 119 35.196 C 119 28.816, 111.988 25.327, 109.010 30.224 C 106.727 33.978, 107.094 34.538, 113.058 36.409 C 116.818 37.588, 117.073 37.817, 114.718 37.901 C 111.310 38.022, 105 35.501, 105 34.019 C 105 31.709, 107.902 26.151, 109.656 25.102 C 112.261 23.545, 108.060 19.994, 103.639 20.015 C 99.529 20.035, 98.684 20.680, 96.104 25.769 C 93.812 30.290, 93.348 30.341, 88.500 26.605 C 85.963 24.650, 87.852 24.507, 90.618 26.445 C 92.456 27.732, 96 23.872, 96 20.583 C 96 19.710, 92.218 19.375, 90.315 20.079 M 84.618 29.191 C 86.283 31.885, 110.374 42.258, 117.500 43.349 C 122.820 44.163, 119.761 42.732, 110.497 40.073 C 106.646 38.967, 99.127 35.872, 93.790 33.195 C 88.452 30.518, 84.325 28.716, 84.618 29.191 M 87.634 38.783 C 86.814 40.110, 89.051 48.797, 90.529 50.024 C 91.612 50.923, 93.162 50.615, 97.462 48.646 C 103.699 45.791, 104.341 44.364, 100.062 42.872 C 98.446 42.308, 95.426 40.982, 93.350 39.924 C 89.177 37.796, 88.347 37.630, 87.634 38.783 M 89 41.267 C 89 43.641, 91.133 49, 92.078 49 C 99.484 49, 101.862 44.792, 95.750 42.502 C 92.862 41.421, 90.162 40.377, 89.750 40.184 C 89.338 39.991, 89 40.479, 89 41.267 M 72.313 47.330 C 71.866 48.087, 70.880 48.904, 70.123 49.146 C 65.857 50.506, 47.149 98.023, 49.690 101.043 C 51.473 103.162, 52.034 104.730, 51.611 106.414 C 50.954 109.031, 53.368 110.761, 55.377 109.113 C 55.995 108.606, 57.608 108.036, 58.963 107.846 C 63.479 107.212, 64.798 101.164, 61.506 96.188 C 56.249 88.244, 57.522 78.261, 64.583 72.061 C 68.045 69.022, 69.920 68.285, 75.493 67.774 C 80.253 67.338, 83.726 59.515, 80.647 56.165 C 79.466 54.881, 78.633 53.014, 78.796 52.016 C 79.205 49.507, 73.473 45.364, 72.313 47.330 M 81.716 64 C 79.782 68.578, 79.321 69, 76.269 69 C 62.324 69, 54.764 84.472, 63.092 95.969 C 65.960 99.927, 65.960 99.927, 63.980 104.547 C 61.643 109.998, 61.642 110.007, 63.250 109.976 C 67.336 109.899, 69.035 99.781, 65.600 95.980 C 56.203 85.578, 63.357 70.151, 77.117 71.144 C 81.290 71.446, 82.735 69.713, 85.455 61.142 C 86.846 56.760, 83.786 59.099, 81.716 64 M 96.638 60.500 C 96.322 61.325, 95.143 62, 94.018 62 C 91.429 62, 87.024 70.349, 88.531 72.401 C 93.232 78.799, 93.500 79.533, 93.500 86.034 C 93.500 95.996, 85.853 104, 76.336 104 C 72.123 104, 68.854 110.525, 71.310 114.032 C 72.156 115.241, 72.631 116.799, 72.363 117.496 C 71.405 119.994, 77.636 121.131, 78.742 118.659 C 79.568 116.812, 80.533 116.500, 85.421 116.500 C 91.133 116.500, 91.133 116.500, 101.567 92.582 C 113.239 65.822, 112.868 67, 109.622 67 C 106.821 67, 104.733 64.859, 105.524 62.797 C 105.918 61.770, 104.932 60.996, 102.175 60.171 C 97.272 58.702, 97.330 58.698, 96.638 60.500 M 85.438 66.354 C 82.988 71.707, 82.988 71.707, 86.401 75.327 C 96.084 85.594, 87.285 102.880, 73.697 100.282 C 71.110 99.788, 68.620 103.091, 66.561 109.750 C 65.265 113.942, 67.923 112.086, 70.500 107 C 72.922 102.220, 73.215 102, 77.149 102 C 90.412 102, 97.650 84.551, 88.395 74.890 C 85.714 72.092, 85.714 72.092, 87.857 67.111 C 91.447 58.765, 89.230 58.071, 85.438 66.354 M 71.966 83.064 C 70.405 85.981, 72.422 88.102, 76.496 87.827 C 79.191 87.646, 79.630 87.278, 79.211 85.555 C 78.045 80.762, 73.951 79.354, 71.966 83.064 M 41.512 100.962 C 41.169 102.041, 41.438 103.954, 42.108 105.212 C 43.200 107.262, 43.160 107.362, 41.724 106.177 C 40.842 105.450, 39.948 103.875, 39.738 102.677 C 39.421 100.874, 38.985 101.273, 37.200 105 C 24.732 131.026, 78.535 155.379, 91.660 129.651 C 94.080 124.909, 94.142 122.458, 91.783 124.817 C 91.133 125.468, 88.778 125.939, 86.550 125.864 C 84.052 125.780, 83.458 125.577, 85 125.334 C 90.323 124.495, 91.796 123.973, 92.264 122.759 C 93.152 120.451, 83.160 121.833, 81.897 124.193 C 80.763 126.312, 77.701 126.228, 70.255 123.874 C 67.504 123.005, 67.162 122.566, 68.005 120.990 C 68.552 119.968, 69 118.735, 69 118.250 C 69 116.805, 56.726 111.352, 56.302 112.608 C 54.774 117.132, 53.536 117.247, 49.065 113.279 C 45.154 109.809, 44.829 109.188, 45.887 107.211 C 46.877 105.362, 46.709 104.526, 44.845 102.004 C 42.214 98.446, 42.302 98.473, 41.512 100.962 M 54.044 124.250 C 47.800 127.457, 50.450 131.868, 59.658 133.596 C 64.273 134.461, 64.398 134.138, 61.963 127.632 C 59.545 121.168, 59.817 121.284, 54.044 124.250 M 54.250 125.493 C 49.967 127.352, 50.092 127.671, 56.208 130.505 C 62.394 133.371, 62.373 133.380, 60.673 128.469 C 59.093 123.905, 58.520 123.640, 54.250 125.493 M 47.697 137.051 C 47.156 139.119, 47.950 139.963, 52.700 142.375 C 56.702 144.407, 56.659 144.410, 57.288 142.005 C 57.705 140.411, 56.844 139.525, 52.999 137.593 C 48.420 135.293, 48.163 135.267, 47.697 137.051" stroke="none" fill="#e2e8f0" fill-rule="evenodd"/></svg>