<?xml version="1.0" standalone="no"?>
<!DOCTYPE svg PUBLIC "-//W3C//DTD SVG 20010904//EN"
 "http://www.w3.org/TR/2001/REC-SVG-20010904/DTD/svg10.dtd">
<svg version="1.0" xmlns="http://www.w3.org/2000/svg"
 width="90.000000pt" height="90.000000pt" viewBox="0 0 90.000000 90.000000"
 preserveAspectRatio="xMidYMid meet">
<metadata>
Created by potrace 1.10, written by Peter Selinger 2001-2011
</metadata>
<g transform="translate(0.000000,90.000000) scale(0.050000,-0.050000)"
fill="#ff4d00" stroke="none">
<path d="M732 1779 c-452 -76 -790 -557 -713 -1014 121 -721 999 -1009 1512
-496 616 616 66 1655 -799 1510z m441 -120 c601 -207 722 -1031 208 -1409
-534 -391 -1285 -12 -1285 650 0 565 539 944 1077 759z"/>
<path d="M722 1590 c-59 -17 -143 -51 -187 -75 l-79 -45 62 -12 c136 -28 201
-149 150 -278 -29 -73 -30 -85 -1 -128 25 -39 27 -59 8 -108 -18 -48 -17 -68
4 -92 55 -67 148 -19 140 72 -6 79 1 88 27 36 18 -36 41 -50 82 -50 110 0 123
130 15 146 -30 5 -43 21 -43 52 0 50 -56 112 -102 112 -20 0 -28 26 -28 92 l0
92 170 -8 c251 -13 454 -114 595 -295 66 -86 70 -88 57 -31 -85 373 -502 623
-870 520z"/>
<path d="M228 1135 c-225 -663 595 -1249 1112 -794 l70 61 -70 -36 c-131 -67
-460 -51 -625 30 -208 103 -290 221 -324 469 l-11 75 75 0 c155 1 169 103 16
116 -74 7 -169 83 -170 138 -2 66 -42 34 -73 -59z"/>
</g>
</svg>
