<?xml version="1.0" encoding="utf-8"?>
<svg viewBox="9.6 7.2 20 20" width="20" height="20" xmlns="http://www.w3.org/2000/svg">
  <path d="M 17.561 17.319 L 17.561 19.608 L 13.205 19.608 L 13.205 17.319 Z M 25.583 21.642 L 25.583 23.906 L 18.29 23.906 L 18.29 22.011 Q 21.531 16.712 22.142 15.453 Q 22.753 14.194 22.753 13.488 Q 22.753 12.947 22.568 12.68 Q 22.384 12.413 22.006 12.413 Q 21.629 12.413 21.445 12.709 Q 21.26 13.004 21.26 13.882 L 21.26 15.145 L 18.29 15.145 L 18.29 14.661 Q 18.29 13.545 18.405 12.902 Q 18.52 12.258 18.971 11.634 Q 19.422 11.011 20.144 10.691 Q 20.866 10.371 21.875 10.371 Q 23.852 10.371 24.865 11.351 Q 25.878 12.331 25.878 13.833 Q 25.878 14.973 25.308 16.244 Q 24.738 17.516 21.949 21.642 Z" style="fill: rgb(14, 165, 233);"/>
</svg>