<svg viewBox="64.149 38.155 17.794 20.001" width="20" height="20" xmlns="http://www.w3.org/2000/svg"><path d="M64.665 47.663h2.892v-2.9h1.966v2.9h2.908v1.966h-2.908v2.884h-1.966v-2.884h-2.892Zm15.957-5.551v2.087h-4.036v2.216q.757-.895 1.95-.895 1.345 0 2.034.754.689.753.689 2.896v1.861q0 1.386-.133 2.034-.133.649-.568 1.201t-1.213.846-1.897.294q-1.257 0-2.216-.439-.958-.439-1.361-1.31-.403-.87-.403-2.69v-.709h3.255v.813q0 1.265.089 1.797.088.532.612.532.242 0 .391-.153.149-.154.161-.331t.028-1.539v-2.586q0-.733-.153-.999t-.508-.266q-.225 0-.378.137t-.198.294-.044.73H73.5l.137-6.575Z" style="fill:#f43f5e"/></svg>