<svg viewBox="64.149 44.151 11.866 13.006" width="20" height="20" xmlns="http://www.w3.org/2000/svg"><path d="M64.493 50.161h1.928v-1.934h1.311v1.934h1.938v1.31h-1.938v1.923h-1.311v-1.923h-1.928zm9.982.07q.495.165.736.545.24.379.241 1.775 0 1.037-.236 1.609t-.816.87-1.488.298q-1.03 0-1.619-.347-.589-.345-.774-.848t-.185-1.743v-.688h2.17v1.413q0 .564.067.717t.298.153q.252 0 .333-.193.081-.195.081-1.01v-.602q0-.5-.113-.73a.56.56 0 0 0-.333-.304q-.22-.072-.854-.083v-1.262q.773 0 .956-.059a.42.42 0 0 0 .263-.258q.081-.199.081-.623v-.483q0-.457-.094-.602t-.293-.145q-.226 0-.309.153t-.083.653v.714h-2.17v-.741q0-1.245.569-1.684.57-.438 1.81-.438 1.552 0 2.106.607t.553 1.687q0 .73-.199 1.055-.199.326-.698.594" style="fill:#f43f5e"/></svg>