<?xml version="1.0" encoding="utf-8"?>
<svg viewBox="9.6 7.2 20 20" width="20" height="20" xmlns="http://www.w3.org/2000/svg">
  <path d="M 11.43 16.277 L 14.375 16.277 L 14.375 13.324 L 16.376 13.324 L 16.376 16.277 L 19.338 16.277 L 19.338 18.279 L 16.376 18.279 L 16.376 21.215 L 14.375 21.215 L 14.375 18.279 L 11.43 18.279 Z M 27.578 21.642 L 27.578 23.906 L 20.285 23.906 L 20.285 22.011 Q 23.526 16.712 24.137 15.453 Q 24.748 14.194 24.748 13.488 Q 24.748 12.947 24.563 12.68 Q 24.379 12.413 24.001 12.413 Q 23.624 12.413 23.44 12.709 Q 23.255 13.004 23.255 13.882 L 23.255 15.145 L 20.285 15.145 L 20.285 14.661 Q 20.285 13.545 20.4 12.902 Q 20.515 12.258 20.966 11.634 Q 21.417 11.011 22.139 10.691 Q 22.861 10.371 23.87 10.371 Q 25.847 10.371 26.86 11.351 Q 27.873 12.331 27.873 13.833 Q 27.873 14.973 27.303 16.244 Q 26.733 17.516 23.944 21.642 Z" style="fill: rgb(244, 63, 94);"/>
</svg>