<svg xmlns="http://www.w3.org/2000/svg" width="160" height="160" viewBox="0 0 160 160" version="1.1"><path d="M 96.500 18.072 C 94.300 18.613, 88.732 20.919, 84.126 23.195 C 73.968 28.215, 65.778 35.941, 48.289 57 C 33.851 74.385, 30.316 77.850, 22.601 82.185 C 15.524 86.162, 13.699 88.522, 16.240 90.412 C 19.064 92.512, 33.463 95.187, 45.602 95.868 L 56.893 96.500 52.308 106.684 C 46.939 118.607, 39.705 128.643, 32 134.854 C 28.975 137.293, 26.114 139.946, 25.641 140.750 C 23.199 144.905, 31.896 146.870, 53 146.930 C 89.191 147.034, 114.005 134.506, 126.312 109.916 C 130.068 102.411, 131.732 97.297, 134.512 84.723 C 136.430 76.046, 138 66.793, 138 64.161 C 138 59.972, 138.385 59.091, 141.092 57.090 C 145.340 53.950, 147.001 49.362, 146.996 40.782 C 146.993 35.318, 146.504 32.699, 145.035 30.290 C 142.650 26.379, 136.632 23.160, 130.253 22.385 C 127.639 22.068, 123.475 20.879, 121 19.743 C 115.825 17.368, 102.929 16.489, 96.500 18.072 M 96.230 22.550 C 81.779 26.441, 73.573 33.239, 51.416 59.675 C 37.484 76.297, 32.082 81.642, 25.250 85.565 C 23.462 86.591, 22 87.706, 22 88.043 C 22 89.268, 35.806 91.211, 48 91.701 L 60.500 92.204 64.234 85.239 C 69.764 74.923, 78.986 62.441, 87.099 54.290 C 95.827 45.523, 100.487 42.204, 107.300 39.902 C 112.287 38.218, 112.524 37.972, 113.089 33.912 C 113.512 30.869, 114.567 28.883, 116.839 26.853 C 118.577 25.299, 120 23.850, 120 23.633 C 120 23.415, 118.001 22.734, 115.557 22.119 C 109.707 20.646, 102.726 20.802, 96.230 22.550 M 119.277 27.973 C 114.011 31.183, 113.496 38, 118.518 38 C 123.858 38, 129.914 43.365, 130.032 48.200 C 130.076 50.032, 134.630 55, 136.263 55 C 137.660 55, 141.934 51.483, 142.084 50.211 C 142.130 49.820, 142.365 45.989, 142.607 41.697 C 143.031 34.184, 142.941 33.787, 140.195 31.041 C 135.147 25.993, 124.972 24.501, 119.277 27.973 M 108.614 42.037 C 97.239 46.777, 89.037 54.033, 77.004 70 C 70.350 78.831, 67.073 84.913, 52.278 115.895 C 49.609 121.485, 46.591 125.505, 39.919 132.357 C 35.063 137.344, 31.183 141.504, 31.295 141.603 C 32.122 142.325, 59.422 142.498, 67.320 141.831 C 85.501 140.295, 105.156 131.645, 114.034 121.273 C 119.088 115.369, 124.831 105.286, 126.626 99.167 C 128.061 94.276, 130.640 82.976, 133.161 70.544 C 134.281 65.020, 133.587 58.185, 131.636 55.517 C 130.498 53.961, 130.113 54.426, 128.208 59.650 C 125.795 66.267, 118.634 77.544, 113.145 83.369 C 109.140 87.619, 99.923 95.256, 99.413 94.747 C 99.237 94.570, 103.234 90.155, 108.296 84.936 C 122.377 70.417, 129.594 56.263, 127.123 48.015 C 126.515 45.986, 125.132 43.524, 124.049 42.545 C 121.090 39.867, 114.354 39.645, 108.614 42.037" stroke="none" fill="#1c1c1d" fill-rule="evenodd"/><path d="M 96.230 22.550 C 81.779 26.441, 73.573 33.239, 51.416 59.675 C 37.484 76.297, 32.082 81.642, 25.250 85.565 C 23.462 86.591, 22 87.706, 22 88.043 C 22 89.268, 35.806 91.211, 48 91.701 L 60.500 92.204 64.234 85.239 C 69.764 74.923, 78.986 62.441, 87.099 54.290 C 95.827 45.523, 100.487 42.204, 107.300 39.902 C 112.287 38.218, 112.524 37.972, 113.089 33.912 C 113.512 30.869, 114.567 28.883, 116.839 26.853 C 118.577 25.299, 120 23.850, 120 23.633 C 120 23.415, 118.001 22.734, 115.557 22.119 C 109.707 20.646, 102.726 20.802, 96.230 22.550 M 119.277 27.973 C 114.011 31.183, 113.496 38, 118.518 38 C 123.858 38, 129.914 43.365, 130.032 48.200 C 130.076 50.032, 134.630 55, 136.263 55 C 137.660 55, 141.934 51.483, 142.084 50.211 C 142.130 49.820, 142.365 45.989, 142.607 41.697 C 143.031 34.184, 142.941 33.787, 140.195 31.041 C 135.147 25.993, 124.972 24.501, 119.277 27.973 M 108.614 42.037 C 97.239 46.777, 89.037 54.033, 77.004 70 C 70.350 78.831, 67.073 84.913, 52.278 115.895 C 49.609 121.485, 46.591 125.505, 39.919 132.357 C 35.063 137.344, 31.183 141.504, 31.295 141.603 C 32.122 142.325, 59.422 142.498, 67.320 141.831 C 85.501 140.295, 105.156 131.645, 114.034 121.273 C 119.088 115.369, 124.831 105.286, 126.626 99.167 C 128.061 94.276, 130.640 82.976, 133.161 70.544 C 134.281 65.020, 133.587 58.185, 131.636 55.517 C 130.498 53.961, 130.113 54.426, 128.208 59.650 C 125.795 66.267, 118.634 77.544, 113.145 83.369 C 109.140 87.619, 99.923 95.256, 99.413 94.747 C 99.237 94.570, 103.234 90.155, 108.296 84.936 C 122.377 70.417, 129.594 56.263, 127.123 48.015 C 126.515 45.986, 125.132 43.524, 124.049 42.545 C 121.090 39.867, 114.354 39.645, 108.614 42.037" stroke="none" fill="#7eb7dd" fill-rule="evenodd"/></svg>