<?xml version="1.0" encoding="iso-8859-1"?>
<!-- Uploaded to: SVG Repo, www.svgrepo.com, Generator: SVG Repo Mixer Tools -->
<svg fill="#000000" height="800px" width="800px" version="1.1" id="Layer_1" xmlns="http://www.w3.org/2000/svg" xmlns:xlink="http://www.w3.org/1999/xlink" 
	 viewBox="0 0 512 512" xml:space="preserve">
<g>
	<g>
		<path d="M494.496,17.493C477.301,0.298,453.019-4.248,422.319,3.977c-82.101,22-197.341,133.723-258.726,198.362
			C81.471,288.813,8.511,382.116,0.952,410.324c-2.567,9.577,0.668,15.361,3.833,18.526c16.21,16.21,46.771,14.008,68.746,9.607
			c-4.398,21.975-6.601,52.539,9.607,68.747c3.389,3.389,7.356,4.797,11.743,4.797c9.236,0,20.338-6.244,31.834-13.384
			c15.052-9.348,35.114-23.777,58.013-41.725c50.796-39.814,108.37-91.088,157.956-140.674
			c42.771-42.771,101.207-105.975,136.702-164.188C517,90.344,522.083,45.08,494.496,17.493z M480.074,86.6
			c-17.272,56.413-88.244,146.309-194.717,246.641c-41.193,38.816-84.988,76.534-123.316,106.206
			c-33.637,26.04-53.188,38.185-62.345,42.714c-3.978-12.456-0.097-37.68,5.414-55.695l36.794-36.794
			c5.409-5.409,5.409-14.179,0-19.59c-5.409-5.409-14.179-5.409-19.59,0l-36.793,36.793c-18.022,5.513-43.243,9.394-55.695,5.416
			c4.528-9.157,16.674-28.709,42.713-62.345c29.672-38.329,67.39-82.125,106.206-123.316
			C279.079,120.157,368.976,49.185,425.388,31.913c22.849-6.996,39.046-5.306,49.519,5.168
			C485.38,47.554,487.07,63.751,480.074,86.6z"/>
	</g>
</g>
<g>
	<g>
		<path d="M327.928,242.48c-5.481-5.34-14.294-5.176-19.628,0.305c-5.373,5.445-5.315,14.214,0.13,19.588
			c2.698,2.664,6.214,3.992,9.728,3.992c3.576,0,7.15-1.375,9.859-4.122l0.216-0.22C333.569,256.542,333.409,247.817,327.928,242.48
			z"/>
	</g>
</g>
<g>
	<g>
		<path d="M429.33,110.115c-6.884-3.34-15.17-0.464-18.506,6.419c-11.013,22.707-36.747,56.197-74.421,96.847
			c-5.2,5.611-4.867,14.375,0.744,19.574c2.666,2.471,6.043,3.693,9.412,3.693c3.722,0,7.434-1.492,10.163-4.437
			c40.074-43.24,66.661-78.092,79.027-103.59C439.087,121.739,436.213,113.453,429.33,110.115z"/>
	</g>
</g>
</svg>